<?xml version="1.0" standalone="no"?>
<!DOCTYPE svg PUBLIC "-//W3C//DTD SVG 20010904//EN"
 "http://www.w3.org/TR/2001/REC-SVG-20010904/DTD/svg10.dtd">
<svg version="1.0" xmlns="http://www.w3.org/2000/svg"
 width="612.000000pt" height="612.000000pt" viewBox="0 0 612.000000 612.000000"
 preserveAspectRatio="xMidYMid meet">

<g transform="translate(0.000000,612.000000) scale(0.100000,-0.100000)"
fill="#000000" stroke="none">
<path d="M2980 4675 c0 -8 7 -15 15 -15 9 0 12 6 9 15 -4 8 -10 15 -15 15 -5
0 -9 -7 -9 -15z"/>
<path d="M3083 4683 c9 -2 23 -2 30 0 6 3 -1 5 -18 5 -16 0 -22 -2 -12 -5z"/>
<path d="M2908 4664 c-16 -8 -28 -20 -28 -27 0 -17 17 -120 30 -192 27 -140
39 -202 46 -228 l7 -28 -104 7 c-57 4 -107 11 -110 16 -3 5 -9 3 -12 -6 -7
-17 47 -95 91 -134 15 -13 56 -38 91 -55 171 -82 378 -2 463 180 25 53 31 78
32 141 0 46 -5 91 -13 112 -23 57 -75 131 -88 126 -16 -7 -27 11 -11 17 8 4 4
8 -9 12 -13 4 -21 10 -19 14 3 4 -13 17 -35 29 -21 12 -39 18 -39 12 0 -8 -6
-8 -20 0 -16 8 -20 8 -20 -3 0 -15 37 -30 42 -17 2 4 12 4 23 -1 15 -6 16 -8
4 -8 -9 -1 -22 -8 -29 -16 -10 -13 -9 -15 11 -15 19 0 21 2 9 10 -20 13 0 13
37 0 27 -10 30 -15 27 -46 -2 -35 -2 -35 16 -15 l18 21 16 -25 c19 -28 11 -34
-11 -7 -12 14 -14 15 -10 1 3 -9 0 -16 -6 -16 -7 0 -35 -1 -64 -1 -47 -2 -51
-4 -47 -24 2 -13 2 -17 -2 -10 -3 6 -9 10 -14 7 -4 -3 -13 2 -20 10 -7 8 -19
15 -26 15 -8 0 -14 10 -14 24 0 37 -10 56 -31 56 -22 0 -26 -15 -6 -23 7 -3
19 -23 26 -46 8 -29 17 -41 30 -41 10 0 21 -9 24 -20 3 -11 2 -20 -2 -20 -13
0 -79 75 -86 98 -3 12 -12 22 -18 22 -7 0 -34 25 -62 55 -27 30 -52 55 -55 55
-3 -1 -17 -8 -32 -16z m457 -165 c11 -16 1 -19 -13 -3 -7 8 -8 14 -3 14 5 0
13 -5 16 -11z m-55 -48 c-13 -24 -30 -28 -30 -6 0 8 7 15 15 15 8 0 15 5 15
12 0 6 3 9 6 6 3 -4 1 -16 -6 -27z m-113 -20 c0 -25 -2 -27 -15 -15 -11 12
-11 18 -2 29 16 20 17 20 17 -14z m56 2 c-7 -2 -19 -2 -25 0 -7 3 -2 5 12 5
14 0 19 -2 13 -5z m-3 -42 c0 -18 -18 -21 -30 -6 -10 13 -9 15 9 15 11 0 21
-4 21 -9z"/>
<path d="M3012 4638 c6 -18 28 -21 28 -4 0 9 -7 16 -16 16 -9 0 -14 -5 -12
-12z"/>
<path d="M3132 4620 c13 -20 28 -27 28 -12 0 10 -22 32 -32 32 -5 0 -3 -9 4
-20z"/>
<path d="M2742 4493 c-28 -62 -40 -120 -31 -158 4 -16 7 -22 8 -12 1 13 10 17
40 17 37 0 40 2 57 45 17 45 17 47 -4 74 -12 16 -24 41 -28 55 -9 37 -18 33
-42 -21z m35 -25 c-3 -8 -6 -5 -6 6 -1 11 2 17 5 13 3 -3 4 -12 1 -19z m-34
-13 c-3 -9 -8 -14 -10 -11 -3 3 -2 9 2 15 9 16 15 13 8 -4z m62 -16 c11 -16 1
-19 -13 -3 -7 8 -8 14 -3 14 5 0 13 -5 16 -11z m-5 -59 c0 -17 -7 -20 -40 -20
-33 0 -40 3 -40 20 0 17 7 20 40 20 33 0 40 -3 40 -20z"/>
<path d="M2840 4370 c0 -5 5 -10 11 -10 5 0 7 5 4 10 -3 6 -8 10 -11 10 -2 0
-4 -4 -4 -10z"/>
<path d="M2730 4266 c0 -2 7 -7 16 -10 8 -3 12 -2 9 4 -6 10 -25 14 -25 6z"/>
<path d="M2327 4070 c-123 -31 -209 -150 -193 -267 22 -162 209 -268 347 -197
21 10 29 27 42 81 10 37 33 101 53 141 33 67 35 76 23 104 -16 39 -78 100
-121 121 -46 22 -105 28 -151 17z"/>
<path d="M3662 4061 c-38 -13 -67 -33 -98 -67 -54 -58 -63 -87 -40 -123 38
-58 57 -112 81 -223 11 -54 115 -81 209 -54 64 19 120 68 151 131 92 195 -100
409 -303 336z"/>
<path d="M3253 3974 c-101 -59 -267 -63 -375 -8 -33 17 -59 23 -75 19 -36 -9
-148 -127 -178 -189 -41 -85 -55 -151 -55 -273 0 -62 2 -113 5 -113 3 0 22 10
43 23 182 113 439 151 647 98 50 -13 132 -43 184 -67 52 -24 96 -44 97 -44 12
0 2 224 -11 275 -17 63 -60 146 -103 197 -28 34 -120 109 -130 107 -4 -1 -26
-12 -49 -25z"/>
<path d="M2147 3538 c-78 -78 -100 -130 -105 -256 -3 -69 -1 -107 7 -115 7 -7
11 -7 11 -1 0 7 17 8 48 4 29 -5 49 -4 53 3 12 18 39 -1 39 -28 0 -14 -5 -25
-10 -25 -6 0 -15 -12 -20 -27 -25 -68 -71 -164 -88 -182 -9 -9 -12 -41 -11
-102 1 -75 4 -89 18 -89 13 0 14 2 1 9 -10 7 -1 11 30 13 l45 3 -2 38 c-1 21
2 37 8 37 6 0 9 6 6 13 -3 6 -8 21 -12 32 -6 16 -5 17 4 5 9 -13 11 -12 11 3
0 10 -4 26 -8 35 -5 10 -4 26 3 40 11 20 12 14 10 -42 -1 -36 2 -71 6 -78 6
-9 8 -7 9 7 0 11 1 49 2 85 1 47 2 54 5 25 l5 -40 31 80 c49 125 98 203 186
297 l81 86 0 101 c0 56 -1 101 -3 101 -2 0 -25 -7 -51 -16 -60 -21 -147 -14
-204 15 -23 12 -43 21 -46 21 -3 0 -29 -24 -59 -52z m-4 -785 c-13 -2 -33 -2
-45 0 -13 2 -3 4 22 4 25 0 35 -2 23 -4z"/>
<path d="M3866 3568 c-65 -34 -160 -35 -238 -3 -16 7 -18 -2 -18 -95 l0 -103
46 -46 c73 -72 129 -141 161 -198 16 -29 33 -50 38 -45 4 4 5 2 1 -5 -3 -6 1
-30 10 -52 l16 -40 56 36 c31 20 59 39 62 42 3 4 22 17 43 31 l38 25 -3 135
c-3 119 -6 141 -28 185 -23 47 -119 156 -137 155 -4 -1 -26 -10 -47 -22z"/>
<path d="M2875 3480 c-179 -47 -288 -112 -412 -244 -96 -102 -161 -223 -194
-356 -18 -72 -21 -104 -16 -220 6 -153 17 -201 83 -335 42 -87 109 -184 128
-185 5 0 2 8 -6 18 -8 9 -18 24 -22 32 -4 8 4 2 17 -14 14 -16 23 -35 20 -42
-2 -6 1 -15 8 -20 8 -4 10 -3 5 4 -4 7 -2 12 3 12 7 0 11 28 11 73 0 65 -2 74
-25 91 -25 19 -25 36 1 36 8 0 14 -10 14 -22 0 -17 3 -19 12 -10 8 8 8 15 -2
27 -7 8 -10 27 -7 42 4 24 4 26 -8 10 -20 -28 -27 -20 -24 27 2 24 0 42 -5 39
-4 -3 -5 3 -2 14 3 11 -1 39 -9 63 -20 56 -20 225 1 310 26 114 79 206 169
295 128 128 262 185 435 187 180 2 330 -58 458 -182 65 -64 142 -190 157 -260
4 -17 9 -30 11 -30 6 0 126 82 141 96 30 29 -63 198 -171 311 -72 77 -203 166
-295 203 -134 52 -342 66 -476 30z m-583 -992 c-8 -8 -9 -5 -5 12 4 16 3 21
-5 16 -8 -5 -10 -1 -5 10 6 16 8 15 16 -4 7 -16 7 -26 -1 -34z m148 17 c0 -3
-4 -4 -9 0 -5 3 -12 -3 -14 -12 -3 -10 -5 -3 -6 15 -1 30 1 32 14 18 8 -8 15
-17 15 -21z m-4 -50 c-17 -17 -21 -9 -10 20 5 11 10 13 17 6 6 -6 4 -15 -7
-26z m-29 -7 c-3 -8 -6 -5 -6 6 -1 11 2 17 5 13 3 -3 4 -12 1 -19z m-100 -20
c-3 -7 -5 -2 -5 12 0 14 2 19 5 13 2 -7 2 -19 0 -25z m73 -78 c0 -5 -4 -10 -9
-10 -5 0 -7 -10 -4 -22 5 -18 3 -20 -7 -12 -7 7 -9 21 -5 33 6 21 25 29 25 11z
m35 -9 c-34 -21 -44 -19 -25 4 7 8 22 15 34 15 18 0 17 -2 -9 -19z m-30 -61
c3 -5 1 -10 -4 -10 -6 0 -11 5 -11 10 0 6 2 10 4 10 3 0 8 -4 11 -10z m95 -95
c0 -8 -2 -15 -4 -15 -2 0 -6 7 -10 15 -3 8 -1 15 4 15 6 0 10 -7 10 -15z"/>
<path d="M3249 3167 c57 -29 211 -145 208 -157 -1 -3 11 -25 27 -49 55 -86 94
-209 97 -306 l1 -40 10 40 c14 57 2 177 -24 238 -59 141 -164 242 -297 287
-87 29 -96 24 -22 -13z"/>
<path d="M2053 2830 c0 -47 2 -66 4 -42 2 23 2 61 0 85 -2 23 -4 4 -4 -43z"/>
<path d="M2181 2784 c0 -11 3 -14 6 -6 3 7 2 16 -1 19 -3 4 -6 -2 -5 -13z"/>
<path d="M3690 2683 c0 -171 -53 -301 -179 -446 -30 -33 -135 -101 -206 -132
-71 -32 -151 -46 -253 -46 -106 0 -186 18 -272 60 -61 31 -78 42 -156 105 -25
20 -31 22 -30 9 0 -9 -5 -18 -12 -20 -7 -3 -10 1 -6 10 3 8 2 17 -3 20 -4 3
-9 -10 -9 -28 -1 -22 -10 -42 -27 -57 -49 -44 -45 -60 30 -116 90 -66 161
-104 258 -138 73 -26 92 -28 225 -29 165 0 244 17 373 81 178 88 337 267 402
453 40 113 42 150 10 186 -15 17 -50 56 -78 89 -29 32 -55 63 -59 70 -4 6 -8
-26 -8 -71z"/>
<path d="M2510 2343 c0 -6 5 -15 11 -19 6 -3 9 -14 6 -24 -3 -13 0 -17 9 -13
14 5 11 14 -16 53 -6 9 -10 10 -10 3z"/>
<path d="M2560 2281 c0 -6 4 -13 10 -16 6 -3 7 1 4 9 -7 18 -14 21 -14 7z"/>
<path d="M2733 1703 c-18 -89 -29 -172 -26 -190 7 -46 63 -93 109 -93 52 0 89
24 112 72 19 42 79 314 71 322 -2 2 -44 12 -94 21 -49 9 -101 19 -115 22 -25
5 -25 3 -57 -154z"/>
</g>
</svg>
